HIERARCHY
ROOT root
{
	OFFSET 0.000000 0.000000 0.000000
	CHANNELS 6 Xposition Yposition Zposition Zrotation Yrotation Xrotation
	JOINT lhip
	{
		OFFSET 0.058581 -0.082280 -0.017664
		CHANNELS 3 Zrotation Yrotation Xrotation
		JOINT lknee
		{
			OFFSET 0.043451 -0.386469 0.008037
			CHANNELS 3 Zrotation Yrotation Xrotation
			JOINT lankle
			{
				OFFSET -0.014790 -0.426874 -0.037428
				CHANNELS 3 Zrotation Yrotation Xrotation
				JOINT ltoe
				{
					OFFSET 0.041054 -0.060286 0.122042
					CHANNELS 3 Zrotation Yrotation Xrotation
					End Site
					{
						OFFSET 0.000000 0.000000 0.000000
					}
				}
			}
		}
	}
	JOINT rhip
	{
		OFFSET -0.060310 -0.090513 -0.013543
		CHANNELS 3 Zrotation Yrotation Xrotation
		JOINT rknee
		{
			OFFSET -0.043257 -0.383688 -0.004843
			CHANNELS 3 Zrotation Yrotation Xrotation
			JOINT rankle
			{
				OFFSET 0.019056 -0.420046 -0.034562
				CHANNELS 3 Zrotation Yrotation Xrotation
				JOINT rtoe
				{
					OFFSET -0.034840 -0.062106 0.130323
					CHANNELS 3 Zrotation Yrotation Xrotation
					End Site
					{
						OFFSET 0.000000 0.000000 0.000000
					}
				}
			}
		}
	}
	JOINT lowerback
	{
		OFFSET 0.004439 0.124404 -0.038385
		CHANNELS 3 Zrotation Yrotation Xrotation
		JOINT upperback
		{
			OFFSET 0.004488 0.137956 0.026820
			CHANNELS 3 Zrotation Yrotation Xrotation
			JOINT chest
			{
				OFFSET -0.002265 0.056032 0.002855
				CHANNELS 3 Zrotation Yrotation Xrotation
				JOINT lowerneck
				{
					OFFSET -0.013390 0.211636 -0.033468
					CHANNELS 3 Zrotation Yrotation Xrotation
					JOINT upperneck
					{
						OFFSET 0.010113 0.088937 0.050410
						CHANNELS 3 Zrotation Yrotation Xrotation
						End Site
						{
							OFFSET 0.000000 0.000000 0.000000
						}
					}
				}
				JOINT lclavicle
				{
					OFFSET 0.071702 0.114000 -0.018898
					CHANNELS 3 Zrotation Yrotation Xrotation
					JOINT lshoulder
					{
						OFFSET 0.122921 0.045205 -0.019046
						CHANNELS 3 Zrotation Yrotation Xrotation
						JOINT lelbow
						{
							OFFSET 0.255332 -0.015649 -0.022946
							CHANNELS 3 Zrotation Yrotation Xrotation
							JOINT lwrist
							{
								OFFSET 0.265709 0.012698 -0.007375
								CHANNELS 3 Zrotation Yrotation Xrotation
								End Site
								{
									OFFSET 0.000000 0.000000 0.000000
								}
							}
						}
					}
				}
				JOINT rclavicle
				{
					OFFSET -0.082954 0.112472 -0.023707
					CHANNELS 3 Zrotation Yrotation Xrotation
					JOINT rshoulder
					{
						OFFSET -0.113228 0.046853 -0.008472
						CHANNELS 3 Zrotation Yrotation Xrotation
						JOINT relbow
						{
							OFFSET -0.260127 -0.014369 -0.031269
							CHANNELS 3 Zrotation Yrotation Xrotation
							JOINT rwrist
							{
								OFFSET -0.269108 0.006794 -0.006027
								CHANNELS 3 Zrotation Yrotation Xrotation
								End Site
								{
									OFFSET 0.000000 0.000000 0.000000
								}
							}
						}
					}
				}
			}
		}
	}
}
MOTION
Frames: 16
Frame Time: 0.033333
-1.463188 -0.092094 1.053537 -4.314007 0.257756 92.883945 16.105632 2.255452 -8.380145 -7.939286 -7.102187 14.160453 -0.919778 4.848402 -16.542581 0.000000 -0.000000 0.000000 -16.138317 -6.273693 -10.590780 6.738559 -1.098611 19.014384 8.199061 2.058351 -11.095744 0.000000 -0.000000 0.000000 2.256413 2.883700 4.883124 -0.492417 2.156024 -5.398283 -2.240444 0.766148 -2.965286 2.866135 -4.407968 -8.578926 -0.241212 -11.207042 10.029409 -28.910470 9.323960 2.269829 -59.460463 -4.323142 9.364884 11.716739 -28.182616 0.015603 -2.938724 -9.954177 -17.498714 28.118349 -1.364926 2.139075 55.943693 6.936649 10.543828 -12.794074 21.913173 -0.932622 12.243167 4.513488 2.120792 
-1.443329 -0.095710 1.051442 -3.743290 -0.069947 92.671254 15.206021 2.458283 -8.731724 -9.325270 -7.021871 15.038288 -0.330275 4.036159 -17.560705 0.000000 -0.000000 0.000000 -17.446056 -6.515850 -10.665563 5.799398 -0.833391 19.838058 9.280513 1.546845 -10.814344 0.000000 -0.000000 0.000000 2.091184 2.969571 5.182914 -0.414646 1.910463 -5.729487 -2.228427 0.659948 -2.752059 2.958016 -4.553875 -8.933600 -0.432495 -11.237293 10.013366 -28.737559 9.362326 2.340598 -59.414963 -4.472892 9.449442 11.515632 -28.199159 0.553851 -3.007607 -10.326080 -17.815219 28.455976 -1.504807 1.841480 55.648057 6.879216 10.662568 -13.072973 21.370817 -1.516298 12.540372 4.357486 2.740348 
-1.422179 -0.099057 1.049801 -3.021399 -0.556709 92.136308 13.715507 2.298386 -9.099486 -10.304594 -7.244130 16.390585 0.331179 3.465651 -18.252585 0.000000 -0.000000 0.000000 -18.971561 -6.731539 -10.502246 4.727088 -0.512624 20.866186 10.537003 0.937512 -10.071582 0.000000 -0.000000 0.000000 1.922516 3.132088 5.943562 -0.443592 1.486465 -6.108705 -2.262392 0.551494 -2.485095 2.847896 -4.805161 -9.142222 -0.533192 -11.220459 9.757919 -28.442694 9.090455 2.348628 -59.155023 -4.748664 9.522612 11.177533 -28.057129 1.108350 -3.273404 -10.732862 -18.246090 28.790711 -1.430762 1.507731 55.458478 6.807959 10.778129 -13.647356 20.916053 -2.471601 12.825733 4.135018 3.469860 
-1.399797 -0.102202 1.048824 -2.127005 -1.144108 91.394865 11.583144 1.760448 -9.456509 -10.739704 -7.367499 17.912824 1.376919 3.330000 -18.767558 0.000000 -0.000000 0.000000 -20.672415 -7.037951 -10.163122 3.591347 -0.047048 22.033816 11.841852 0.450473 -8.640837 0.000000 -0.000000 0.000000 1.892788 3.439952 6.962898 -0.575474 0.851773 -6.514629 -2.362735 0.464435 -2.261260 2.425576 -5.300106 -8.850105 -0.486207 -11.088556 9.088831 -27.949900 8.458988 2.442701 -58.835048 -4.970576 9.557836 10.668501 -27.895621 1.710396 -3.739294 -11.042574 -18.778906 28.860604 -1.231624 1.335779 55.602026 6.629787 10.784669 -14.539146 20.778281 -3.919081 12.954957 3.911806 3.968602 
-1.376207 -0.104913 1.048012 -1.112690 -1.641583 90.626586 9.301222 1.123362 -9.641243 -10.839832 -7.511414 19.073532 2.531459 3.188229 -19.087477 0.000000 -0.000000 0.000000 -22.246896 -7.513750 -10.193368 2.508794 0.620108 23.854758 12.981187 -0.247780 -6.747933 0.000000 -0.000000 0.000000 2.253044 3.696466 7.966226 -0.762534 0.298314 -6.894390 -2.644039 0.390481 -2.040242 1.803253 -5.972997 -8.369189 -0.437346 -10.924971 8.501153 -27.529329 7.762313 2.552561 -58.366559 -5.197576 9.589038 10.130071 -27.899529 2.337775 -4.202692 -11.217062 -19.041423 28.769652 -1.001554 1.236994 55.821649 6.309705 10.752345 -15.520702 21.032786 -5.755283 12.907411 3.809442 4.179804 
-1.351648 -0.107243 1.047311 -0.111332 -1.975630 89.820856 7.073856 0.822179 -9.377133 -10.845905 -7.921286 19.513757 3.680337 3.070162 -19.097057 0.000000 -0.000000 0.000000 -23.516419 -8.096784 -10.934795 1.424717 1.198969 26.797432 13.742209 -1.361543 -4.534864 0.000000 -0.000000 0.000000 2.856641 3.643189 9.043967 -0.920732 0.060736 -7.403741 -2.986694 0.382473 -1.845725 1.183585 -6.758186 -7.865711 -0.521440 -10.720802 8.424232 -27.398619 7.181327 2.617995 -57.608489 -5.335625 9.639085 9.488270 -28.084963 2.824002 -4.578969 -11.550552 -19.066614 28.757636 -0.761217 1.143168 55.625763 5.899442 10.821277 -16.204268 21.449699 -7.401095 13.314733 3.817267 4.347846 
-1.326823 -0.109078 1.046938 0.878231 -2.167524 88.923962 5.055802 0.942108 -8.548508 -10.960901 -8.583981 19.177931 4.686240 2.873330 -18.807747 0.000000 -0.000000 0.000000 -24.400091 -8.463193 -12.296069 0.145230 1.342440 30.802197 13.888310 -3.062578 -2.067633 0.000000 -0.000000 0.000000 3.360174 3.286249 10.249091 -0.982021 0.184617 -7.998812 -3.157640 0.344045 -1.700876 0.726298 -7.628895 -7.320284 -0.724752 -10.413327 8.649353 -27.478912 6.818449 2.698520 -57.024837 -5.543786 9.653950 9.201343 -28.262908 3.185259 -4.492216 -11.903561 -18.978201 28.834080 -0.601527 0.954840 55.013003 5.644049 11.011440 -16.635821 21.684634 -8.467377 13.523690 3.971329 4.879102 
-1.302762 -0.110028 1.047096 1.854302 -2.293965 87.898908 3.315228 1.283843 -7.201570 -11.259676 -9.329302 18.244396 5.455415 2.531873 -18.216989 0.000000 -0.000000 0.000000 -24.635349 -8.363369 -14.290555 -1.857338 1.196407 35.813074 13.178388 -5.564134 0.872241 0.000000 -0.000000 0.000000 3.555279 2.579198 11.646229 -0.942875 0.533887 -8.625308 -3.107597 0.267813 -1.580303 0.404992 -8.482461 -6.841390 -0.932468 -9.886151 8.997141 -27.607352 6.684747 2.778700 -56.692252 -5.776705 9.483044 9.251253 -28.497430 3.297442 -4.157001 -12.100127 -19.096626 28.998537 -0.353659 0.732856 54.346375 5.681566 11.334978 -17.129936 21.531909 -9.221261 14.055915 3.976003 5.546739 
-1.280035 -0.110145 1.047543 2.973034 -2.414116 86.676916 1.757619 1.557802 -5.411078 -11.607274 -10.240741 16.955994 5.987035 2.175806 -17.263190 0.000000 -0.000000 0.000000 -24.242740 -8.019301 -16.626752 -4.325998 0.960562 41.390314 11.003645 -8.717175 4.463430 0.000000 -0.000000 0.000000 3.463459 1.674004 13.229506 -0.844464 0.897489 -9.091160 -2.908652 0.087754 -1.441592 0.130150 -9.305132 -6.479800 -1.056065 -9.185835 9.187500 -27.656803 6.527868 2.921629 -56.610377 -6.051282 9.115139 9.516002 -28.672476 3.084108 -3.632675 -12.086708 -19.932777 29.182029 0.011076 0.465753 53.945043 5.983131 11.660343 -17.899017 21.068037 -10.219748 14.325152 3.888883 6.033291 
-1.259750 -0.109749 1.047964 4.126204 -2.492895 85.372280 0.541826 1.894170 -3.285874 -11.997037 -11.297397 15.354306 6.286955 1.909454 -16.124151 0.000000 -0.000000 0.000000 -23.257907 -7.775240 -19.196012 -5.478249 1.191872 47.472306 8.879205 -10.130172 5.848671 0.000000 -0.000000 0.000000 3.088899 0.898762 14.837843 -0.639075 1.078159 -9.340810 -2.617194 -0.137826 -1.255961 0.036851 -9.563677 -6.255428 -1.200087 -8.835718 9.139380 -27.464398 6.195570 2.916976 -56.779269 -6.209310 8.798460 9.857801 -28.586833 2.424098 -3.003459 -11.713752 -21.127985 29.355838 0.407580 0.146929 53.917802 6.365112 11.777321 -18.729798 20.700389 -11.213843 14.287058 3.763751 6.034609 
-1.241614 -0.108880 1.048472 5.321392 -2.695778 84.288249 -0.555122 2.277222 -1.071029 -12.375132 -12.629109 13.263138 6.360425 1.769673 -14.757798 0.000000 -0.000000 0.000000 -21.872509 -7.607715 -22.134700 -4.055221 1.757123 54.134250 8.930801 -7.905529 2.416276 0.000000 -0.000000 0.000000 2.444352 0.291394 16.038892 -0.329693 1.017041 -9.243189 -2.477793 -0.340381 -1.072851 0.308963 -8.761991 -6.252157 -1.513273 -9.387005 9.057603 -27.206697 5.666113 2.458763 -56.674233 -6.014890 8.880887 9.900981 -28.216447 1.172829 -2.182039 -10.999327 -21.616564 29.717692 0.768434 -0.254402 54.077178 6.689617 11.698426 -19.440573 20.579800 -12.163054 13.567534 3.743229 5.909289 
-1.225216 -0.108183 1.049424 6.746440 -2.958068 83.461493 -1.576040 2.539935 1.296936 -12.530327 -14.217575 10.473247 6.202191 1.660069 -13.066107 0.000000 -0.000000 0.000000 -20.057035 -7.414539 -25.242805 -1.974044 0.828646 60.304074 9.793026 -5.657420 -1.520626 0.000000 -0.000000 0.000000 1.637360 -0.408004 16.765036 -0.045265 0.862142 -8.878053 -2.404480 -0.615340 -0.975566 0.741603 -7.625033 -6.200234 -1.821480 -10.071714 8.835490 -27.026225 5.111376 1.972461 -56.249811 -5.686619 9.105002 9.887260 -27.624907 -0.090914 -1.826783 -10.485131 -21.035455 30.003000 1.067978 -0.654645 54.553244 6.821518 11.766624 -19.862681 20.655187 -12.715929 13.130031 3.807437 5.717944 
-1.209681 -0.107697 1.050940 8.475128 -3.257025 82.872277 -2.717994 2.493086 3.643887 -12.330519 -15.971482 7.341494 5.875999 1.687457 -11.247759 0.000000 -0.000000 0.000000 -17.959482 -6.805556 -28.170396 -0.378619 -1.736763 65.095320 10.001043 -4.749006 -4.309840 0.000000 -0.000000 0.000000 0.734514 -1.414701 17.290179 0.153557 0.663066 -8.656124 -2.293087 -0.904204 -0.989276 1.047603 -6.633181 -5.888847 -1.959289 -10.509594 8.390477 -26.745674 4.715762 1.695121 -55.947970 -5.208472 9.311460 9.978497 -27.092434 -0.959007 -2.299569 -10.244955 -19.903769 29.878853 1.246653 -0.967527 55.498535 6.609940 12.020313 -20.024582 21.116499 -12.413973 13.444484 3.882078 5.341284 
-1.195058 -0.106861 1.052260 10.344163 -3.511716 82.552419 -3.848645 2.255494 5.531597 -11.978909 -17.583550 4.578342 5.557062 1.720409 -9.635116 0.000000 -0.000000 0.000000 -15.402110 -5.884795 -30.957719 0.529308 -4.877121 68.344046 9.932353 -4.079596 -5.611666 0.000000 -0.000000 0.000000 -0.145460 -2.474502 17.785595 0.309654 0.425055 -8.726478 -2.149065 -1.155496 -1.062964 1.226328 -5.908128 -5.580179 -1.917067 -10.916447 7.983200 -26.386766 4.553169 1.566841 -55.984199 -4.768572 9.455093 10.216640 -26.715620 -1.661176 -3.205954 -10.134011 -18.716538 29.499626 1.173869 -1.250165 56.610403 6.094481 12.299761 -20.045084 22.085523 -11.346551 14.227643 4.053681 4.777822 
-1.181060 -0.105796 1.052703 12.361139 -3.782671 82.372786 -5.067707 1.806334 6.881778 -11.565414 -18.883941 2.608418 5.367296 1.618958 -8.392255 0.000000 -0.000000 0.000000 -12.515861 -4.838902 -33.292541 1.102728 -7.934791 70.046214 10.067538 -3.034562 -5.697222 0.000000 -0.000000 0.000000 -1.028129 -3.391376 18.329781 0.447911 0.055501 -8.954476 -1.986823 -1.439987 -1.133853 1.395653 -5.424837 -5.552559 -1.806526 -11.338849 7.760278 -26.143921 4.563635 1.432507 -56.163304 -4.408967 9.562318 10.492542 -26.466892 -2.487336 -4.287633 -10.207945 -17.667933 29.147741 0.940996 -1.592690 57.487288 5.364047 12.591659 -19.905923 23.290217 -9.947610 15.549758 4.304827 4.248593 
-1.168100 -0.104501 1.051957 14.475514 -4.064821 82.440870 -6.314859 1.144225 7.433092 -11.285049 -19.716203 1.677662 5.416036 1.325372 -7.612794 0.000000 -0.000000 0.000000 -9.245714 -3.938886 -35.288644 1.648505 -10.565288 70.282948 10.523334 -1.931625 -4.303981 0.000000 -0.000000 0.000000 -1.957785 -3.899760 18.688174 0.637628 -0.460132 -9.119743 -1.774832 -1.846306 -1.196709 1.637001 -5.189394 -5.833502 -1.654019 -11.782792 7.592455 -26.044002 4.616441 1.272154 -56.398833 -4.290312 9.722816 10.730080 -26.110112 -3.378556 -5.256198 -10.434864 -16.727701 28.867031 0.559061 -2.002971 58.173924 4.617998 12.908038 -19.812072 24.253877 -8.695156 17.000436 4.614055 3.725874 
